# xmcd
#
# Track frame offsets: 
#        150
#        15799
#        34483
#        52795
#        66817
#        88935
#        100059
#        118685
#        132699
#        148102
#        164796
#        183746
#        201182
#
# Disc length: 2977 seconds
#
# Revision: 0
# Processed by: cddbd v1.5.2PL0 Copyright (c) Steve Scherf et al.
# Submitted via: ExactAudioCopyFreeDBPlugin 1.0
#
DISCID=c00b9f0d
DTITLE=群星 - 東方臉譜 Disc 2
DYEAR=2009
DGENRE=
TTITLE0=三笑
TTITLE1=中華民謠
TTITLE2=繡荷包
TTITLE3=北京的橋
TTITLE4=紅梅贊
TTITLE5=擁軍花鼓
TTITLE6=天上掉下個林妹妹
TTITLE7=手拿碟兒敲起來
TTITLE8=採紅菱
TTITLE9=誰說女子不如男
TTITLE10=對花
TTITLE11=珊瑚頌
TTITLE12=沂蒙山小調
EXTD=
EXTT0=
EXTT1=
EXTT2=
EXTT3=
EXTT4=
EXTT5=
EXTT6=
EXTT7=
EXTT8=
EXTT9=
EXTT10=
EXTT11=
EXTT12=
PLAYORDER=
